<svg xmlns="http://www.w3.org/2000/svg" xmlns:xlink="http://www.w3.org/1999/xlink" width="180" zoomAndPan="magnify" viewBox="0 0 135 135.000003" height="180" preserveAspectRatio="xMidYMid meet" version="1.0"><defs><clipPath id="3d906768dd"><path d="M 0.496094 0 L 134.503906 0 L 134.503906 134.007812 L 0.496094 134.007812 Z M 0.496094 0 " clip-rule="nonzero"/></clipPath><clipPath id="8929feed8a"><path d="M 28 0 L 134.503906 0 L 134.503906 134.007812 L 28 134.007812 Z M 28 0 " clip-rule="nonzero"/></clipPath></defs><g clip-path="url(#3d906768dd)"><path fill="#d9d9d9" d="M 134.503906 67.003906 C 134.503906 104.007812 104.503906 134.007812 67.5 134.007812 C 30.496094 134.007812 0.496094 104.007812 0.496094 67.003906 C 0.496094 30 30.496094 0 67.5 0 C 104.503906 0 134.503906 30 134.503906 67.003906 Z M 3.175781 67.003906 C 3.175781 102.527344 31.976562 131.328125 67.5 131.328125 C 103.023438 131.328125 131.824219 102.527344 131.824219 67.003906 C 131.824219 31.480469 103.023438 2.679688 67.5 2.679688 C 31.976562 2.679688 3.175781 31.480469 3.175781 67.003906 Z M 3.175781 67.003906 " fill-opacity="1" fill-rule="nonzero"/></g><g clip-path="url(#8929feed8a)"><path fill="#8f3334" d="M 67.5 0 C 78.074219 0 88.496094 2.503906 97.917969 7.304688 C 107.339844 12.101562 115.492188 19.066406 121.707031 27.621094 C 127.921875 36.175781 132.023438 46.078125 133.679688 56.523438 C 135.332031 66.964844 134.492188 77.652344 131.222656 87.710938 C 127.957031 97.765625 122.355469 106.90625 114.878906 114.382812 C 107.402344 121.859375 98.261719 127.460938 88.207031 130.726562 C 78.148438 133.996094 67.460938 134.835938 57.019531 133.183594 C 46.574219 131.527344 36.671875 127.425781 28.117188 121.210938 L 29.691406 119.042969 C 37.902344 125.007812 47.410156 128.945312 57.4375 130.535156 C 67.464844 132.125 77.722656 131.316406 87.378906 128.179688 C 97.03125 125.042969 105.804688 119.664062 112.984375 112.488281 C 120.160156 105.308594 125.539062 96.535156 128.675781 86.878906 C 131.8125 77.226562 132.621094 66.96875 131.03125 56.941406 C 129.445312 46.914062 125.503906 37.40625 119.539062 29.195312 C 113.574219 20.984375 105.746094 14.300781 96.703125 9.691406 C 87.65625 5.082031 77.652344 2.679688 67.5 2.679688 Z M 67.5 0 " fill-opacity="1" fill-rule="nonzero"/></g></svg>